ffmpeg started on 2026-01-20 at 14:27:17
Report written to "D:\Convert\FFMetrics\reports\ssim_report-6.txt"
Log level: 32
Command line:
ffmpeg -hide_banner -nostdin -r 24000/1001 -i "F:\\Convert\\files\\[DC] Make Heroine ga Oosugiru - 07_Telegram_HEVC(211).mkv" -r 24000/1001 -i "F:\\Convert\\files\\[DC] Make Heroine ga Oosugiru - 07_Telegram.mp4" -lavfi "[0:v]settb=AVTB,setpts=PTS-STARTPTS,format=pix_fmts=yuv420p10le,fps=24000/1001,scale=1920:1080:flags=lanczos:param0=3:out_range=limited:out_color_matrix=bt709:out_chroma_loc=left,setsar=1/1,setdar=(1920/1080)*(1/1),colorspace=format=yuv420p10:range=tv:primaries=bt709:trc=bt709:space=bt709:fast=0[main];[1:v]settb=AVTB,setpts=PTS-STARTPTS,format=pix_fmts=yuv420p,fps=24000/1001,scale=1920:1080:flags=lanczos:param0=3:out_range=limited:out_color_matrix=bt709:out_chroma_loc=left,setsar=1.000,setdar=1.778,colorspace=format=yuv420p:range=tv:primaries=bt709:trc=bt709:space=bt709:fast=0[ref];[main][ref]ssim=eof_action=endall:stats_file='D\\:/Convert/FFMetrics/logs/ssim_logfile-6.txt'" -f null -
Input #0, matroska,webm, from 'F:\Convert\files\[DC] Make Heroine ga Oosugiru - 07_Telegram_HEVC(211).mkv':
  Metadata:
    COMPATIBLE_BRANDS: isomiso2avc1mp41
    MAJOR_BRAND     : isom
    MINOR_VERSION   : 512
    ENCODER         : Lavf61.7.100
  Duration: 00:24:06.79, start: -0.021000, bitrate: 896 kb/s
  Stream #0:0: Video: hevc (Main 10), yuv420p10le(tv, bt709, progressive), 1920x1080 [SAR 1:1 DAR 16:9], 23.98 fps, 23.98 tbr, 1k tbn (default)
      Metadata:
        HANDLER_NAME    : VideoHandler
        VENDOR_ID       : [0][0][0][0]
        ENCODER         : Lavc61.19.100 libx265
        BPS             : 699637
        DURATION        : 00:24:06.569708333
        NUMBER_OF_FRAMES: 34683
        NUMBER_OF_BYTES : 126509179
        _STATISTICS_WRITING_APP: mkvpropedit v94.0 ('Initiate') 64-bit
        _STATISTICS_WRITING_DATE_UTC: 2026-01-20 10:07:44
        _STATISTICS_TAGS: BPS DURATION NUMBER_OF_FRAMES NUMBER_OF_BYTES
  Stream #0:1: Audio: aac (LC), 48000 Hz, stereo, fltp (default)
      Metadata:
        HANDLER_NAME    : SoundHandler
        VENDOR_ID       : [0][0][0][0]
        ENCODER         : Lavc61.19.100 aac
        BPS             : 193194
        DURATION        : 00:24:06.784000000
        NUMBER_OF_FRAMES: 67819
        NUMBER_OF_BYTES : 34938755
        _STATISTICS_WRITING_APP: mkvpropedit v94.0 ('Initiate') 64-bit
        _STATISTICS_WRITING_DATE_UTC: 2026-01-20 10:07:44
        _STATISTICS_TAGS: BPS DURATION NUMBER_OF_FRAMES NUMBER_OF_BYTES
Input #1, mov,mp4,m4a,3gp,3g2,mj2, from 'F:\Convert\files\[DC] Make Heroine ga Oosugiru - 07_Telegram.mp4':
  Metadata:
    major_brand     : isom
    minor_version   : 512
    compatible_brands: isomiso2avc1mp41
    encoder         : Lavf60.16.100
  Duration: 00:24:06.74, start: 0.000000, bitrate: 3764 kb/s
  Stream #1:0[0x1](und): Video: h264 (High) (avc1 / 0x31637661), yuv420p(tv, bt709, progressive), 1920x1080 [SAR 1:1 DAR 16:9], 3616 kb/s, 23.98 fps, 23.98 tbr, 24k tbn (default)
      Metadata:
        handler_name    : VideoHandler
        vendor_id       : [0][0][0][0]
        encoder         : Lavc60.31.102 h264_qsv
  Stream #1:1[0x2](und): Audio: aac (HE-AACv2) (mp4a / 0x6134706D), 48000 Hz, stereo, fltp, 144 kb/s (default)
      Metadata:
        handler_name    : SoundHandler
        vendor_id       : [0][0][0][0]
Stream mapping:
  Stream #0:0 (hevc) -> settb:default
  Stream #1:0 (h264) -> settb:default
  ssim:default -> Stream #0:0 (wrapped_avframe)
  Stream #0:1 -> #0:1 (aac (native) -> pcm_s16le (native))
Output #0, null, to 'pipe:':
  Metadata:
    COMPATIBLE_BRANDS: isomiso2avc1mp41
    MAJOR_BRAND     : isom
    MINOR_VERSION   : 512
    encoder         : Lavf61.7.100
  Stream #0:0: Video: wrapped_avframe, yuv420p10le(tv, bt709, progressive), 1920x1080 [SAR 1:1 DAR 16:9], q=2-31, 200 kb/s, 23.98 fps, 23.98 tbn
      Metadata:
        encoder         : Lavc61.19.100 wrapped_avframe
  Stream #0:1: Audio: pcm_s16le, 48000 Hz, stereo, s16, 1536 kb/s (default)
      Metadata:
        HANDLER_NAME    : SoundHandler
        VENDOR_ID       : [0][0][0][0]
        _STATISTICS_TAGS: BPS DURATION NUMBER_OF_FRAMES NUMBER_OF_BYTES
        BPS             : 193194
        DURATION        : 00:24:06.784000000
        NUMBER_OF_FRAMES: 67819
        NUMBER_OF_BYTES : 34938755
        _STATISTICS_WRITING_APP: mkvpropedit v94.0 ('Initiate') 64-bit
        _STATISTICS_WRITING_DATE_UTC: 2026-01-20 10:07:44
        encoder         : Lavc61.19.100 pcm_s16le
frame=  136 fps=0.0 q=-0.0 size=N/A time=00:00:05.67 bitrate=N/A speed=10.8x    frame=  331 fps=320 q=-0.0 size=N/A time=00:00:13.80 bitrate=N/A speed=13.3x    frame=  518 fps=335 q=-0.0 size=N/A time=00:00:21.60 bitrate=N/A speed=  14x    frame=  718 fps=346 q=-0.0 size=N/A time=00:00:29.94 bitrate=N/A speed=14.4x    frame=  893 fps=345 q=-0.0 size=N/A time=00:00:37.24 bitrate=N/A speed=14.4x    frame= 1045 fps=338 q=-0.0 size=N/A time=00:00:43.58 bitrate=N/A speed=14.1x    frame= 1216 fps=336 q=-0.0 size=N/A time=00:00:50.71 bitrate=N/A speed=  14x    frame= 1394 fps=337 q=-0.0 size=N/A time=00:00:58.14 bitrate=N/A speed=14.1x    frame= 1543 fps=332 q=-0.0 size=N/A time=00:01:04.35 bitrate=N/A speed=13.9x    frame= 1702 fps=330 q=-0.0 size=N/A time=00:01:10.98 bitrate=N/A speed=13.8x    frame= 1877 fps=330 q=-0.0 size=N/A time=00:01:18.28 bitrate=N/A speed=13.8x    frame= 2046 fps=330 q=-0.0 size=N/A time=00:01:25.33 bitrate=N/A speed=13.8x    frame= 2165 fps=323 q=-0.0 size=N/A time=00:01:30.29 bitrate=N/A speed=13.5x    frame= 2328 fps=323 q=-0.0 size=N/A time=00:01:37.09 bitrate=N/A speed=13.5x    frame= 2476 fps=320 q=-0.0 size=N/A time=00:01:43.26 bitrate=N/A speed=13.3x    frame= 2629 fps=318 q=-0.0 size=N/A time=00:01:49.65 bitrate=N/A speed=13.3x    frame= 2806 fps=320 q=-0.0 size=N/A time=00:01:57.03 bitrate=N/A speed=13.3x    frame= 2990 fps=322 q=-0.0 size=N/A time=00:02:04.70 bitrate=N/A speed=13.4x    frame= 3198 fps=326 q=-0.0 size=N/A time=00:02:13.38 bitrate=N/A speed=13.6x    frame= 3394 fps=329 q=-0.0 size=N/A time=00:02:21.55 bitrate=N/A speed=13.7x    frame= 3594 fps=331 q=-0.0 size=N/A time=00:02:29.89 bitrate=N/A speed=13.8x    frame= 3796 fps=334 q=-0.0 size=N/A time=00:02:38.32 bitrate=N/A speed=13.9x    frame= 3994 fps=336 q=-0.0 size=N/A time=00:02:46.58 bitrate=N/A speed=  14x    frame= 4190 fps=338 q=-0.0 size=N/A time=00:02:54.75 bitrate=N/A speed=14.1x    frame= 4391 fps=340 q=-0.0 size=N/A time=00:03:03.14 bitrate=N/A speed=14.2x    frame= 4591 fps=342 q=-0.0 size=N/A time=00:03:11.48 bitrate=N/A speed=14.3x    frame= 4788 fps=343 q=-0.0 size=N/A time=00:03:19.69 bitrate=N/A speed=14.3x    frame= 4986 fps=345 q=-0.0 size=N/A time=00:03:27.95 bitrate=N/A speed=14.4x    frame= 5181 fps=346 q=-0.0 size=N/A time=00:03:36.09 bitrate=N/A speed=14.4x    frame= 5380 fps=347 q=-0.0 size=N/A time=00:03:44.39 bitrate=N/A speed=14.5x    frame= 5574 fps=348 q=-0.0 size=N/A time=00:03:52.48 bitrate=N/A speed=14.5x    frame= 5772 fps=349 q=-0.0 size=N/A time=00:04:00.74 bitrate=N/A speed=14.6x    frame= 5970 fps=350 q=-0.0 size=N/A time=00:04:08.99 bitrate=N/A speed=14.6x    frame= 6167 fps=351 q=-0.0 size=N/A time=00:04:17.21 bitrate=N/A speed=14.7x    frame= 6362 fps=352 q=-0.0 size=N/A time=00:04:25.34 bitrate=N/A speed=14.7x    frame= 6566 fps=353 q=-0.0 size=N/A time=00:04:33.85 bitrate=N/A speed=14.7x    frame= 6761 fps=354 q=-0.0 size=N/A time=00:04:41.99 bitrate=N/A speed=14.8x    frame= 6961 fps=355 q=-0.0 size=N/A time=00:04:50.33 bitrate=N/A speed=14.8x    frame= 7149 fps=355 q=-0.0 size=N/A time=00:04:58.17 bitrate=N/A speed=14.8x    frame= 7353 fps=356 q=-0.0 size=N/A time=00:05:06.68 bitrate=N/A speed=14.8x    frame= 7531 fps=356 q=-0.0 size=N/A time=00:05:14.10 bitrate=N/A speed=14.8x    frame= 7713 fps=356 q=-0.0 size=N/A time=00:05:21.69 bitrate=N/A speed=14.8x    frame= 7912 fps=356 q=-0.0 size=N/A time=00:05:29.99 bitrate=N/A speed=14.9x    frame= 8099 fps=356 q=-0.0 size=N/A time=00:05:37.79 bitrate=N/A speed=14.9x    frame= 8296 fps=357 q=-0.0 size=N/A time=00:05:46.01 bitrate=N/A speed=14.9x    frame= 8488 fps=357 q=-0.0 size=N/A time=00:05:54.02 bitrate=N/A speed=14.9x    frame= 8682 fps=358 q=-0.0 size=N/A time=00:06:02.11 bitrate=N/A speed=14.9x    frame= 8875 fps=358 q=-0.0 size=N/A time=00:06:10.16 bitrate=N/A speed=14.9x    frame= 9072 fps=358 q=-0.0 size=N/A time=00:06:18.37 bitrate=N/A speed=  15x    frame= 9267 fps=359 q=-0.0 size=N/A time=00:06:26.51 bitrate=N/A speed=  15x    frame= 9461 fps=359 q=-0.0 size=N/A time=00:06:34.60 bitrate=N/A speed=  15x    frame= 9656 fps=360 q=-0.0 size=N/A time=00:06:42.73 bitrate=N/A speed=  15x    frame= 9847 fps=360 q=-0.0 size=N/A time=00:06:50.70 bitrate=N/A speed=  15x    frame=10044 fps=360 q=-0.0 size=N/A time=00:06:58.91 bitrate=N/A speed=  15x    frame=10236 fps=361 q=-0.0 size=N/A time=00:07:06.92 bitrate=N/A speed=  15x    frame=10429 fps=361 q=-0.0 size=N/A time=00:07:14.97 bitrate=N/A speed=  15x    frame=10624 fps=361 q=-0.0 size=N/A time=00:07:23.10 bitrate=N/A speed=15.1x    frame=10814 fps=361 q=-0.0 size=N/A time=00:07:31.03 bitrate=N/A speed=15.1x    frame=11004 fps=361 q=-0.0 size=N/A time=00:07:38.95 bitrate=N/A speed=15.1x    frame=11202 fps=362 q=-0.0 size=N/A time=00:07:47.21 bitrate=N/A speed=15.1x    frame=11394 fps=362 q=-0.0 size=N/A time=00:07:55.22 bitrate=N/A speed=15.1x    frame=11591 fps=362 q=-0.0 size=N/A time=00:08:03.44 bitrate=N/A speed=15.1x    frame=11782 fps=362 q=-0.0 size=N/A time=00:08:11.40 bitrate=N/A speed=15.1x    frame=11983 fps=363 q=-0.0 size=N/A time=00:08:19.79 bitrate=N/A speed=15.1x    frame=12176 fps=363 q=-0.0 size=N/A time=00:08:27.84 bitrate=N/A speed=15.1x    frame=12372 fps=363 q=-0.0 size=N/A time=00:08:36.01 bitrate=N/A speed=15.1x    frame=12564 fps=363 q=-0.0 size=N/A time=00:08:44.02 bitrate=N/A speed=15.2x    frame=12770 fps=364 q=-0.0 size=N/A time=00:08:52.61 bitrate=N/A speed=15.2x    frame=12968 fps=364 q=-0.0 size=N/A time=00:09:00.87 bitrate=N/A speed=15.2x    frame=13156 fps=364 q=-0.0 size=N/A time=00:09:08.71 bitrate=N/A speed=15.2x    frame=13350 fps=364 q=-0.0 size=N/A time=00:09:16.80 bitrate=N/A speed=15.2x    frame=13543 fps=364 q=-0.0 size=N/A time=00:09:24.85 bitrate=N/A speed=15.2x    frame=13728 fps=364 q=-0.0 size=N/A time=00:09:32.57 bitrate=N/A speed=15.2x    frame=13928 fps=365 q=-0.0 size=N/A time=00:09:40.91 bitrate=N/A speed=15.2x    frame=14117 fps=365 q=-0.0 size=N/A time=00:09:48.79 bitrate=N/A speed=15.2x    frame=14308 fps=365 q=-0.0 size=N/A time=00:09:56.76 bitrate=N/A speed=15.2x    frame=14494 fps=365 q=-0.0 size=N/A time=00:10:04.52 bitrate=N/A speed=15.2x    frame=14685 fps=365 q=-0.0 size=N/A time=00:10:12.48 bitrate=N/A speed=15.2x    frame=14879 fps=365 q=-0.0 size=N/A time=00:10:20.57 bitrate=N/A speed=15.2x    frame=15064 fps=365 q=-0.0 size=N/A time=00:10:28.29 bitrate=N/A speed=15.2x    frame=15225 fps=364 q=-0.0 size=N/A time=00:10:35.00 bitrate=N/A speed=15.2x    frame=15413 fps=364 q=-0.0 size=N/A time=00:10:42.85 bitrate=N/A speed=15.2x    frame=15612 fps=364 q=-0.0 size=N/A time=00:10:51.15 bitrate=N/A speed=15.2x    frame=15800 fps=364 q=-0.0 size=N/A time=00:10:58.99 bitrate=N/A speed=15.2x    frame=15995 fps=365 q=-0.0 size=N/A time=00:11:07.12 bitrate=N/A speed=15.2x    frame=16188 fps=365 q=-0.0 size=N/A time=00:11:15.17 bitrate=N/A speed=15.2x    frame=16388 fps=365 q=-0.0 size=N/A time=00:11:23.51 bitrate=N/A speed=15.2x    frame=16574 fps=365 q=-0.0 size=N/A time=00:11:31.27 bitrate=N/A speed=15.2x    frame=16773 fps=365 q=-0.0 size=N/A time=00:11:39.57 bitrate=N/A speed=15.2x    frame=16975 fps=365 q=-0.0 size=N/A time=00:11:47.99 bitrate=N/A speed=15.2x    frame=17165 fps=366 q=-0.0 size=N/A time=00:11:55.92 bitrate=N/A speed=15.2x    frame=17368 fps=366 q=-0.0 size=N/A time=00:12:04.39 bitrate=N/A speed=15.3x    frame=17559 fps=366 q=-0.0 size=N/A time=00:12:12.35 bitrate=N/A speed=15.3x    frame=17751 fps=366 q=-0.0 size=N/A time=00:12:20.36 bitrate=N/A speed=15.3x    frame=17950 fps=366 q=-0.0 size=N/A time=00:12:28.66 bitrate=N/A speed=15.3x    frame=18145 fps=366 q=-0.0 size=N/A time=00:12:36.79 bitrate=N/A speed=15.3x    frame=18334 fps=366 q=-0.0 size=N/A time=00:12:44.68 bitrate=N/A speed=15.3x    frame=18525 fps=366 q=-0.0 size=N/A time=00:12:52.64 bitrate=N/A speed=15.3x    frame=18717 fps=366 q=-0.0 size=N/A time=00:13:00.65 bitrate=N/A speed=15.3x    frame=18921 fps=367 q=-0.0 size=N/A time=00:13:09.16 bitrate=N/A speed=15.3x    frame=19119 fps=367 q=-0.0 size=N/A time=00:13:17.42 bitrate=N/A speed=15.3x    frame=19314 fps=367 q=-0.0 size=N/A time=00:13:25.55 bitrate=N/A speed=15.3x    frame=19522 fps=367 q=-0.0 size=N/A time=00:13:34.23 bitrate=N/A speed=15.3x    frame=19712 fps=367 q=-0.0 size=N/A time=00:13:42.15 bitrate=N/A speed=15.3x    frame=19912 fps=368 q=-0.0 size=N/A time=00:13:50.49 bitrate=N/A speed=15.3x    frame=20109 fps=368 q=-0.0 size=N/A time=00:13:58.71 bitrate=N/A speed=15.3x    frame=20314 fps=368 q=-0.0 size=N/A time=00:14:07.26 bitrate=N/A speed=15.3x    frame=20499 fps=368 q=-0.0 size=N/A time=00:14:14.97 bitrate=N/A speed=15.3x    frame=20683 fps=368 q=-0.0 size=N/A time=00:14:22.65 bitrate=N/A speed=15.3x    frame=20881 fps=368 q=-0.0 size=N/A time=00:14:30.91 bitrate=N/A speed=15.3x    frame=21088 fps=368 q=-0.0 size=N/A time=00:14:39.54 bitrate=N/A speed=15.4x    frame=21279 fps=368 q=-0.0 size=N/A time=00:14:47.51 bitrate=N/A speed=15.4x    frame=21484 fps=368 q=-0.0 size=N/A time=00:14:56.06 bitrate=N/A speed=15.4x    frame=21674 fps=369 q=-0.0 size=N/A time=00:15:03.98 bitrate=N/A speed=15.4x    frame=21872 fps=369 q=-0.0 size=N/A time=00:15:12.24 bitrate=N/A speed=15.4x    frame=22065 fps=369 q=-0.0 size=N/A time=00:15:20.29 bitrate=N/A speed=15.4x    frame=22262 fps=369 q=-0.0 size=N/A time=00:15:28.51 bitrate=N/A speed=15.4x    frame=22457 fps=369 q=-0.0 size=N/A time=00:15:36.64 bitrate=N/A speed=15.4x    frame=22663 fps=369 q=-0.0 size=N/A time=00:15:45.23 bitrate=N/A speed=15.4x    frame=22844 fps=369 q=-0.0 size=N/A time=00:15:52.78 bitrate=N/A speed=15.4x    frame=23040 fps=369 q=-0.0 size=N/A time=00:16:00.96 bitrate=N/A speed=15.4x    frame=23242 fps=369 q=-0.0 size=N/A time=00:16:09.38 bitrate=N/A speed=15.4x    frame=23437 fps=369 q=-0.0 size=N/A time=00:16:17.51 bitrate=N/A speed=15.4x    frame=23634 fps=369 q=-0.0 size=N/A time=00:16:25.73 bitrate=N/A speed=15.4x    frame=23833 fps=370 q=-0.0 size=N/A time=00:16:34.03 bitrate=N/A speed=15.4x    frame=24035 fps=370 q=-0.0 size=N/A time=00:16:42.45 bitrate=N/A speed=15.4x    frame=24224 fps=370 q=-0.0 size=N/A time=00:16:50.34 bitrate=N/A speed=15.4x    frame=24422 fps=370 q=-0.0 size=N/A time=00:16:58.60 bitrate=N/A speed=15.4x    frame=24613 fps=370 q=-0.0 size=N/A time=00:17:06.56 bitrate=N/A speed=15.4x    frame=24812 fps=370 q=-0.0 size=N/A time=00:17:14.86 bitrate=N/A speed=15.4x    frame=25003 fps=370 q=-0.0 size=N/A time=00:17:22.83 bitrate=N/A speed=15.4x    frame=25205 fps=370 q=-0.0 size=N/A time=00:17:31.25 bitrate=N/A speed=15.4x    frame=25404 fps=370 q=-0.0 size=N/A time=00:17:39.55 bitrate=N/A speed=15.4x    frame=25600 fps=370 q=-0.0 size=N/A time=00:17:47.73 bitrate=N/A speed=15.4x    frame=25793 fps=370 q=-0.0 size=N/A time=00:17:55.78 bitrate=N/A speed=15.4x    frame=25986 fps=370 q=-0.0 size=N/A time=00:18:03.83 bitrate=N/A speed=15.4x    frame=26188 fps=370 q=-0.0 size=N/A time=00:18:12.25 bitrate=N/A speed=15.5x    frame=26387 fps=371 q=-0.0 size=N/A time=00:18:20.55 bitrate=N/A speed=15.5x    frame=26579 fps=371 q=-0.0 size=N/A time=00:18:28.56 bitrate=N/A speed=15.5x    frame=26770 fps=371 q=-0.0 size=N/A time=00:18:36.53 bitrate=N/A speed=15.5x    frame=26966 fps=371 q=-0.0 size=N/A time=00:18:44.70 bitrate=N/A speed=15.5x    frame=27148 fps=371 q=-0.0 size=N/A time=00:18:52.29 bitrate=N/A speed=15.5x    frame=27336 fps=371 q=-0.0 size=N/A time=00:19:00.13 bitrate=N/A speed=15.5x    frame=27523 fps=371 q=-0.0 size=N/A time=00:19:07.93 bitrate=N/A speed=15.5x    frame=27713 fps=370 q=-0.0 size=N/A time=00:19:15.86 bitrate=N/A speed=15.5x    frame=27906 fps=371 q=-0.0 size=N/A time=00:19:23.91 bitrate=N/A speed=15.5x    frame=28103 fps=371 q=-0.0 size=N/A time=00:19:32.12 bitrate=N/A speed=15.5x    frame=28297 fps=371 q=-0.0 size=N/A time=00:19:40.22 bitrate=N/A speed=15.5x    frame=28490 fps=371 q=-0.0 size=N/A time=00:19:48.27 bitrate=N/A speed=15.5x    frame=28690 fps=371 q=-0.0 size=N/A time=00:19:56.61 bitrate=N/A speed=15.5x    frame=28862 fps=371 q=-0.0 size=N/A time=00:20:03.78 bitrate=N/A speed=15.5x    frame=29041 fps=370 q=-0.0 size=N/A time=00:20:11.25 bitrate=N/A speed=15.4x    frame=29223 fps=370 q=-0.0 size=N/A time=00:20:18.84 bitrate=N/A speed=15.4x    frame=29411 fps=370 q=-0.0 size=N/A time=00:20:26.68 bitrate=N/A speed=15.4x    frame=29586 fps=370 q=-0.0 size=N/A time=00:20:33.98 bitrate=N/A speed=15.4x    frame=29764 fps=370 q=-0.0 size=N/A time=00:20:41.40 bitrate=N/A speed=15.4x    frame=29946 fps=370 q=-0.0 size=N/A time=00:20:48.99 bitrate=N/A speed=15.4x    frame=30128 fps=370 q=-0.0 size=N/A time=00:20:56.58 bitrate=N/A speed=15.4x    frame=30317 fps=370 q=-0.0 size=N/A time=00:21:04.47 bitrate=N/A speed=15.4x    frame=30510 fps=370 q=-0.0 size=N/A time=00:21:12.52 bitrate=N/A speed=15.4x    frame=30706 fps=370 q=-0.0 size=N/A time=00:21:20.69 bitrate=N/A speed=15.4x    frame=30902 fps=370 q=-0.0 size=N/A time=00:21:28.87 bitrate=N/A speed=15.4x    frame=31097 fps=370 q=-0.0 size=N/A time=00:21:37.00 bitrate=N/A speed=15.4x    frame=31291 fps=370 q=-0.0 size=N/A time=00:21:45.09 bitrate=N/A speed=15.4x    frame=31486 fps=370 q=-0.0 size=N/A time=00:21:53.22 bitrate=N/A speed=15.4x    frame=31679 fps=370 q=-0.0 size=N/A time=00:22:01.27 bitrate=N/A speed=15.4x    frame=31866 fps=370 q=-0.0 size=N/A time=00:22:09.07 bitrate=N/A speed=15.4x    frame=32046 fps=370 q=-0.0 size=N/A time=00:22:16.58 bitrate=N/A speed=15.4x    frame=32247 fps=370 q=-0.0 size=N/A time=00:22:24.96 bitrate=N/A speed=15.4x    frame=32436 fps=370 q=-0.0 size=N/A time=00:22:32.85 bitrate=N/A speed=15.4x    frame=32628 fps=370 q=-0.0 size=N/A time=00:22:40.85 bitrate=N/A speed=15.4x    frame=32786 fps=369 q=-0.0 size=N/A time=00:22:47.44 bitrate=N/A speed=15.4x    frame=32963 fps=369 q=-0.0 size=N/A time=00:22:54.83 bitrate=N/A speed=15.4x    frame=33148 fps=369 q=-0.0 size=N/A time=00:23:02.54 bitrate=N/A speed=15.4x    frame=33336 fps=369 q=-0.0 size=N/A time=00:23:10.38 bitrate=N/A speed=15.4x    frame=33502 fps=369 q=-0.0 size=N/A time=00:23:17.31 bitrate=N/A speed=15.4x    frame=33667 fps=369 q=-0.0 size=N/A time=00:23:24.19 bitrate=N/A speed=15.4x    frame=33810 fps=368 q=-0.0 size=N/A time=00:23:30.15 bitrate=N/A speed=15.4x    frame=33952 fps=368 q=-0.0 size=N/A time=00:23:36.08 bitrate=N/A speed=15.3x    frame=34130 fps=367 q=-0.0 size=N/A time=00:23:43.50 bitrate=N/A speed=15.3x    frame=34296 fps=367 q=-0.0 size=N/A time=00:23:50.42 bitrate=N/A speed=15.3x    frame=34434 fps=367 q=-0.0 size=N/A time=00:23:56.18 bitrate=N/A speed=15.3x    frame=34614 fps=367 q=-0.0 size=N/A time=00:24:03.69 bitrate=N/A speed=15.3x    [Parsed_ssim_16 @ 00000201ad3d0800] SSIM Y:0.993704 (22.009139) U:0.993986 (22.208691) V:0.993612 (21.946017) All:0.993735 (22.031103)
[out#0/null @ 000002019fec8a00] video:14903KiB audio:271276KiB subtitle:0KiB other streams:0KiB global headers:0KiB muxing overhead: unknown
frame=34683 fps=367 q=-0.0 Lsize=N/A time=00:24:06.57 bitrate=N/A speed=15.3x    
